<svg xmlns="http://www.w3.org/2000/svg" xmlns:xlink="http://www.w3.org/1999/xlink" width="500" zoomAndPan="magnify" viewBox="0 0 375 374.999991" height="500" preserveAspectRatio="xMidYMid meet" version="1.0"><defs><g/><clipPath id="e7a499f6cf"><path d="M 49.074219 141.320312 L 127.824219 141.320312 L 127.824219 251.570312 L 49.074219 251.570312 Z M 49.074219 141.320312 " clip-rule="nonzero"/></clipPath></defs><g clip-path="url(#e7a499f6cf)"><path fill="#222222" d="M 126.046875 234.96875 C 125.019531 225.777344 123.746094 214.332031 122.558594 205.304688 C 120.445312 189.238281 119.644531 188.648438 119.0625 188.214844 C 118.699219 187.941406 118.089844 187.488281 108.441406 187.109375 C 107.742188 187.082031 107.015625 187.058594 106.257812 187.03125 C 106.167969 183.238281 105.898438 179.265625 104.832031 175.554688 C 104.066406 172.90625 102.386719 170.585938 99.964844 168.820312 C 99.710938 168.230469 99.445312 167.644531 99.164062 167.066406 C 100.710938 165.480469 101.519531 163.632812 101.558594 161.570312 C 101.648438 156.898438 97.824219 152.867188 96.648438 151.742188 C 93.828125 149.042969 90.871094 147.03125 86.769531 145.019531 L 79.597656 141.503906 C 79.480469 141.445312 79.355469 141.410156 79.222656 141.402344 C 79.089844 141.390625 78.960938 141.410156 78.835938 141.453125 C 78.707031 141.496094 78.597656 141.558594 78.496094 141.648438 C 78.398438 141.734375 78.316406 141.839844 78.257812 141.960938 C 78.203125 142.078125 78.167969 142.207031 78.160156 142.339844 C 78.152344 142.472656 78.171875 142.601562 78.214844 142.726562 C 78.257812 142.851562 78.324219 142.964844 78.410156 143.0625 C 78.5 143.164062 78.605469 143.242188 78.722656 143.300781 L 85.894531 146.816406 C 89.800781 148.734375 92.605469 150.640625 95.273438 153.191406 C 98.496094 156.277344 99.601562 159.523438 99.566406 161.53125 C 99.539062 162.863281 99.074219 164.082031 98.175781 165.175781 C 97.082031 163.214844 95.832031 161.359375 94.421875 159.609375 C 94.339844 159.507812 94.238281 159.421875 94.121094 159.359375 C 94.007812 159.296875 93.882812 159.257812 93.75 159.242188 C 93.621094 159.230469 93.492188 159.242188 93.363281 159.277344 C 93.238281 159.316406 93.121094 159.378906 93.019531 159.460938 C 92.917969 159.542969 92.835938 159.644531 92.769531 159.761719 C 92.707031 159.878906 92.667969 160 92.65625 160.132812 C 92.640625 160.265625 92.652344 160.394531 92.691406 160.523438 C 92.726562 160.648438 92.789062 160.765625 92.871094 160.867188 C 95.066406 163.589844 96.84375 166.558594 98.207031 169.78125 C 98.648438 170.828125 98.949219 171.699219 98.96875 172.566406 C 98.988281 173.449219 98.664062 174.242188 98.125 174.636719 C 97.371094 175.1875 96.246094 175 95.464844 174.570312 C 94.464844 174.019531 93.667969 173.054688 92.894531 172.125 C 92.625 171.796875 92.285156 171.6875 91.875 171.796875 C 91.464844 171.90625 91.222656 172.167969 91.148438 172.585938 C 91.09375 172.898438 90.988281 173.191406 90.835938 173.464844 C 90.679688 173.742188 90.488281 173.984375 90.253906 174.195312 C 90.019531 174.402344 89.753906 174.570312 89.464844 174.691406 C 89.175781 174.8125 88.871094 174.882812 88.558594 174.902344 C 88.246094 174.917969 87.9375 174.886719 87.632812 174.800781 C 87.332031 174.714844 87.050781 174.585938 86.792969 174.40625 C 86.535156 174.226562 86.3125 174.007812 86.128906 173.753906 C 85.941406 173.5 85.800781 173.21875 85.710938 172.917969 C 85.640625 172.695312 85.511719 172.515625 85.316406 172.382812 C 85.121094 172.253906 84.90625 172.195312 84.671875 172.214844 C 84.441406 172.234375 84.238281 172.328125 84.070312 172.488281 C 83.898438 172.652344 83.800781 172.847656 83.769531 173.082031 C 83.636719 174.101562 82.4375 174.789062 81.445312 174.765625 C 79.984375 174.734375 78.777344 173.660156 78.191406 173.019531 C 77.683594 172.464844 76.492188 170.710938 76.351562 170.488281 C 76.113281 170.125 75.871094 169.75 75.621094 169.382812 C 75.347656 168.980469 75.09375 168.601562 74.851562 168.25 C 72.703125 165.058594 71.625 163.453125 67.367188 161.707031 C 67.242188 161.65625 67.117188 161.632812 66.984375 161.632812 C 66.851562 161.632812 66.726562 161.660156 66.605469 161.710938 C 66.480469 161.761719 66.375 161.835938 66.28125 161.929688 C 66.1875 162.023438 66.117188 162.132812 66.066406 162.253906 C 66.015625 162.378906 65.992188 162.503906 65.992188 162.636719 C 65.992188 162.769531 66.019531 162.898438 66.070312 163.019531 C 66.121094 163.140625 66.191406 163.25 66.289062 163.34375 C 66.382812 163.4375 66.488281 163.507812 66.609375 163.558594 C 70.308594 165.078125 71.097656 166.246094 73.199219 169.367188 C 73.441406 169.726562 73.699219 170.109375 73.976562 170.515625 C 74.214844 170.859375 74.707031 171.625 74.722656 171.648438 C 74.347656 172.132812 74 172.640625 73.6875 173.167969 C 71.28125 177.179688 70.628906 181.605469 70.488281 186.945312 C 69.480469 186.976562 68.523438 187.007812 67.621094 187.046875 C 57.84375 187.445312 57.171875 188.070312 56.773438 188.441406 C 56.289062 188.894531 55.558594 189.578125 53.898438 203.773438 C 52.949219 211.867188 51.953125 222.160156 51.074219 231.246094 C 50.332031 238.890625 49.632812 246.113281 49.113281 250.425781 C 49.097656 250.566406 49.109375 250.707031 49.152344 250.84375 C 49.195312 250.980469 49.261719 251.101562 49.355469 251.210938 C 49.453125 251.316406 49.5625 251.398438 49.695312 251.457031 C 49.824219 251.515625 49.960938 251.546875 50.101562 251.546875 L 50.105469 251.546875 L 126.800781 251.242188 C 126.945312 251.242188 127.082031 251.210938 127.210938 251.152344 C 127.339844 251.09375 127.453125 251.011719 127.546875 250.902344 C 127.640625 250.792969 127.710938 250.671875 127.75 250.535156 C 127.792969 250.398438 127.804688 250.257812 127.789062 250.117188 C 127.347656 246.65625 126.746094 241.242188 126.046875 234.96875 Z M 75.394531 174.199219 C 75.558594 173.921875 75.734375 173.65625 75.917969 173.394531 C 76.167969 173.734375 76.4375 174.0625 76.726562 174.378906 C 78.109375 175.882812 79.773438 176.730469 81.402344 176.765625 C 82.054688 176.78125 82.679688 176.65625 83.277344 176.398438 C 83.875 176.140625 84.390625 175.769531 84.828125 175.285156 C 85.320312 175.828125 85.902344 176.242188 86.574219 176.523438 C 87.25 176.804688 87.949219 176.929688 88.679688 176.898438 C 90.207031 176.804688 91.613281 175.914062 92.433594 174.644531 C 93.035156 175.316406 93.726562 175.875 94.503906 176.324219 C 95.269531 176.753906 96.089844 176.96875 96.964844 176.980469 C 97.824219 176.992188 98.601562 176.75 99.300781 176.253906 C 100.375 175.464844 100.996094 174.070312 100.960938 172.523438 C 100.960938 172.496094 100.960938 172.46875 100.957031 172.445312 C 101.871094 173.527344 102.523438 174.75 102.914062 176.109375 C 103.738281 178.976562 104.136719 182.175781 104.261719 186.972656 C 99.414062 186.835938 93.726562 186.753906 88.058594 186.738281 C 82.402344 186.726562 77.042969 186.777344 72.484375 186.890625 C 72.691406 180.078125 73.800781 176.859375 75.394531 174.199219 Z M 51.226562 249.539062 C 51.726562 245.183594 52.347656 238.769531 53.058594 231.4375 C 53.917969 222.570312 54.890625 212.515625 55.816406 204.527344 C 57.140625 193.125 57.859375 190.511719 58.144531 189.929688 C 58.558594 189.773438 60.398438 189.328125 68.179688 189.027344 C 68.902344 188.996094 69.664062 188.972656 70.457031 188.945312 C 70.441406 191.589844 70.515625 194.558594 70.601562 197.929688 L 70.621094 198.722656 C 70.625 198.992188 70.726562 199.222656 70.921875 199.414062 C 71.113281 199.601562 71.34375 199.695312 71.617188 199.695312 L 71.640625 199.695312 C 71.773438 199.695312 71.898438 199.664062 72.019531 199.609375 C 72.140625 199.558594 72.246094 199.484375 72.339844 199.386719 C 72.429688 199.289062 72.5 199.179688 72.546875 199.058594 C 72.59375 198.933594 72.617188 198.804688 72.613281 198.671875 L 72.59375 197.882812 C 72.507812 194.496094 72.433594 191.523438 72.453125 188.890625 C 77.011719 188.777344 82.398438 188.722656 88.0625 188.738281 C 94.25 188.753906 99.75 188.84375 104.296875 188.972656 C 104.320312 190.820312 104.3125 192.792969 104.304688 195.027344 C 104.300781 196.03125 104.296875 197.078125 104.296875 198.164062 C 104.296875 198.296875 104.320312 198.425781 104.371094 198.546875 C 104.421875 198.671875 104.496094 198.777344 104.589844 198.871094 C 104.679688 198.964844 104.789062 199.039062 104.910156 199.089844 C 105.035156 199.140625 105.160156 199.167969 105.292969 199.167969 C 105.425781 199.167969 105.554688 199.140625 105.675781 199.089844 C 105.796875 199.039062 105.90625 198.96875 106 198.875 C 106.09375 198.78125 106.164062 198.671875 106.214844 198.550781 C 106.265625 198.425781 106.289062 198.300781 106.289062 198.167969 C 106.292969 197.082031 106.292969 196.035156 106.300781 195.03125 C 106.308594 192.824219 106.3125 190.871094 106.292969 189.035156 C 112.675781 189.25 116.824219 189.546875 117.835938 189.832031 C 118.164062 190.503906 119.003906 193.472656 120.667969 206.238281 C 121.828125 215.128906 123.066406 226.253906 124.066406 235.191406 C 124.691406 240.832031 125.246094 245.78125 125.671875 249.246094 Z M 51.226562 249.539062 " fill-opacity="1" fill-rule="nonzero"/></g><g fill="#000000" fill-opacity="1"><g transform="translate(128.1614, 220.168203)"><g><path d="M 0.996094 -4.621094 C 1.15625 -1.679688 5.070312 0.367188 10.664062 0.367188 C 15.863281 0.367188 19.539062 -1.734375 19.722656 -5.382812 C 20.0625 -11.871094 6.277344 -12.683594 6.039062 -16.175781 C 5.933594 -17.410156 7.484375 -18.332031 9.585938 -18.042969 C 12.84375 -17.59375 12.710938 -14.101562 15.441406 -12.972656 C 15.835938 -12.816406 16.230469 -12.738281 16.597656 -12.738281 C 17.882812 -12.738281 18.960938 -13.628906 18.542969 -15.285156 C 18.042969 -17.226562 14.785156 -19.382812 9.636719 -19.382812 C 4.804688 -19.40625 1.261719 -17.359375 1.261719 -13.707031 C 1.261719 -7.144531 15.046875 -6.40625 14.417969 -2.601562 C 14.207031 -1.339844 12.84375 -0.710938 11.03125 -0.917969 C 6.117188 -1.445312 6.878906 -6.722656 3.28125 -6.878906 C 1.890625 -6.960938 0.917969 -5.933594 0.996094 -4.621094 Z M 0.996094 -4.621094 "/></g></g></g><g fill="#000000" fill-opacity="1"><g transform="translate(148.879611, 220.168203)"><g><path d="M 0.761719 -17.859375 C 0.894531 -17.753906 1.078125 -17.648438 1.285156 -17.542969 C 1.707031 -17.332031 1.996094 -16.886719 1.996094 -16.414062 L 1.996094 -2.574219 C 1.996094 -2.101562 1.707031 -1.65625 1.285156 -1.445312 C 1.078125 -1.339844 0.894531 -1.234375 0.761719 -1.128906 C 0.316406 -0.8125 0.550781 0 1.078125 0 L 16.703125 0 C 17.175781 0 17.570312 -0.316406 17.675781 -0.761719 C 17.859375 -1.46875 18.121094 -2.546875 18.253906 -3.492188 C 18.382812 -4.203125 17.988281 -4.597656 17.492188 -4.597656 C 17.121094 -4.597656 16.730469 -4.386719 16.441406 -3.9375 C 15.730469 -2.863281 15.335938 -1.574219 12.605469 -1.574219 L 9.21875 -1.574219 C 8.746094 -1.574219 8.429688 -1.890625 8.429688 -2.363281 L 8.429688 -9.085938 L 10.320312 -9.085938 C 13.734375 -9.085938 12.578125 -6.984375 13.761719 -6.878906 C 15.128906 -6.75 15.285156 -13 13.894531 -12.949219 C 12.632812 -12.894531 13.734375 -10.636719 10.320312 -10.636719 L 8.429688 -10.636719 L 8.429688 -16.625 C 8.429688 -17.097656 8.746094 -17.410156 9.21875 -17.410156 L 12.082031 -17.410156 C 14.8125 -17.410156 15.207031 -16.097656 15.914062 -15.023438 C 16.203125 -14.601562 16.597656 -14.390625 16.9375 -14.390625 C 17.4375 -14.390625 17.832031 -14.757812 17.726562 -15.496094 C 17.570312 -16.441406 17.332031 -17.492188 17.148438 -18.199219 C 17.042969 -18.671875 16.625 -18.988281 16.152344 -18.988281 L 1.078125 -18.988281 C 0.550781 -18.988281 0.316406 -18.171875 0.761719 -17.859375 Z M 0.761719 -17.859375 "/></g></g></g><g fill="#000000" fill-opacity="1"><g transform="translate(168.258621, 220.168203)"><g><path d="M 0.761719 -17.832031 C 0.894531 -17.753906 1.078125 -17.648438 1.285156 -17.542969 C 1.707031 -17.308594 1.996094 -16.859375 1.996094 -16.386719 L 1.996094 -2.46875 C 1.945312 -2.046875 1.679688 -1.628906 1.285156 -1.445312 C 1.101562 -1.339844 0.894531 -1.234375 0.761719 -1.128906 C 0.316406 -0.8125 0.550781 0 1.101562 0 L 9.21875 0 C 9.769531 0 10.007812 -0.8125 9.558594 -1.128906 C 9.402344 -1.234375 9.269531 -1.339844 9.113281 -1.417969 C 8.691406 -1.679688 8.429688 -2.128906 8.429688 -2.574219 L 8.429688 -7.800781 L 8.980469 -7.800781 C 10.292969 -7.773438 11.320312 -7.40625 12.554688 -4.621094 L 13.394531 -2.652344 L 13.367188 -2.652344 L 13.445312 -2.496094 C 13.628906 -2.046875 13.5 -1.628906 13.050781 -1.417969 C 12.894531 -1.3125 12.710938 -1.234375 12.578125 -1.128906 C 12.132812 -0.8125 12.371094 0 12.921875 0 L 21.929688 0 C 22.480469 0 22.71875 -0.8125 22.269531 -1.128906 C 22.140625 -1.207031 22.035156 -1.261719 21.902344 -1.3125 C 21.457031 -1.46875 21.035156 -1.839844 20.824219 -2.285156 L 19.328125 -5.4375 C 18.542969 -7.378906 17.4375 -8.351562 16.414062 -8.535156 C 19.539062 -9.402344 21.351562 -10.976562 21.351562 -13.339844 C 21.351562 -17.121094 16.753906 -19.015625 9.507812 -18.988281 L 1.078125 -18.960938 C 0.550781 -18.960938 0.316406 -18.148438 0.761719 -17.832031 Z M 8.429688 -16.597656 C 8.429688 -17.070312 8.746094 -17.410156 9.21875 -17.410156 C 13.15625 -17.386719 14.917969 -16.097656 14.917969 -13.316406 C 14.917969 -10.558594 13.105469 -9.375 9.21875 -9.375 C 8.746094 -9.375 8.429688 -9.691406 8.429688 -10.164062 Z M 8.429688 -16.597656 "/></g></g></g><g fill="#000000" fill-opacity="1"><g transform="translate(191.550189, 220.168203)"><g><path d="M 1.234375 0 L 4.78125 0 C 5.304688 0 5.542969 -0.8125 5.09375 -1.128906 C 5.015625 -1.183594 4.9375 -1.234375 4.859375 -1.285156 C 4.492188 -1.550781 4.332031 -2.046875 4.515625 -2.519531 L 4.597656 -2.785156 L 5.515625 -5.148438 L 13.394531 -5.148438 L 14.3125 -2.625 C 14.445312 -2.207031 14.285156 -1.757812 13.917969 -1.445312 C 13.761719 -1.339844 13.628906 -1.207031 13.5 -1.128906 C 13.050781 -0.8125 13.289062 0 13.8125 0 L 22.742188 0 C 23.292969 0 23.53125 -0.8125 23.085938 -1.128906 C 22.925781 -1.234375 22.742188 -1.339844 22.585938 -1.445312 C 22.164062 -1.679688 21.769531 -2.101562 21.585938 -2.519531 L 15.101562 -18.933594 C 14.941406 -19.382812 14.496094 -19.695312 14.023438 -19.722656 L 8.613281 -20.039062 C 8.167969 -20.0625 7.957031 -19.800781 8.113281 -19.355469 L 8.71875 -17.726562 L 2.574219 -2.519531 C 2.417969 -2.128906 2.023438 -1.757812 1.550781 -1.523438 C 1.285156 -1.390625 1.101562 -1.261719 0.894531 -1.128906 C 0.445312 -0.8125 0.683594 0 1.234375 0 Z M 9.585938 -15.390625 L 12.816406 -6.695312 L 6.144531 -6.695312 Z M 9.585938 -15.390625 "/></g></g></g><g fill="#000000" fill-opacity="1"><g transform="translate(215.524491, 220.168203)"><g><path d="M 0.996094 -4.621094 C 1.15625 -1.679688 5.070312 0.367188 10.664062 0.367188 C 15.863281 0.367188 19.539062 -1.734375 19.722656 -5.382812 C 20.0625 -11.871094 6.277344 -12.683594 6.039062 -16.175781 C 5.933594 -17.410156 7.484375 -18.332031 9.585938 -18.042969 C 12.84375 -17.59375 12.710938 -14.101562 15.441406 -12.972656 C 15.835938 -12.816406 16.230469 -12.738281 16.597656 -12.738281 C 17.882812 -12.738281 18.960938 -13.628906 18.542969 -15.285156 C 18.042969 -17.226562 14.785156 -19.382812 9.636719 -19.382812 C 4.804688 -19.40625 1.261719 -17.359375 1.261719 -13.707031 C 1.261719 -7.144531 15.046875 -6.40625 14.417969 -2.601562 C 14.207031 -1.339844 12.84375 -0.710938 11.03125 -0.917969 C 6.117188 -1.445312 6.878906 -6.722656 3.28125 -6.878906 C 1.890625 -6.960938 0.917969 -5.933594 0.996094 -4.621094 Z M 0.996094 -4.621094 "/></g></g></g><g fill="#000000" fill-opacity="1"><g transform="translate(236.242702, 220.168203)"><g><path d="M 1.234375 0 L 4.78125 0 C 5.304688 0 5.542969 -0.8125 5.09375 -1.128906 C 5.015625 -1.183594 4.9375 -1.234375 4.859375 -1.285156 C 4.492188 -1.550781 4.332031 -2.046875 4.515625 -2.519531 L 4.597656 -2.785156 L 5.515625 -5.148438 L 13.394531 -5.148438 L 14.3125 -2.625 C 14.445312 -2.207031 14.285156 -1.757812 13.917969 -1.445312 C 13.761719 -1.339844 13.628906 -1.207031 13.5 -1.128906 C 13.050781 -0.8125 13.289062 0 13.8125 0 L 22.742188 0 C 23.292969 0 23.53125 -0.8125 23.085938 -1.128906 C 22.925781 -1.234375 22.742188 -1.339844 22.585938 -1.445312 C 22.164062 -1.679688 21.769531 -2.101562 21.585938 -2.519531 L 15.101562 -18.933594 C 14.941406 -19.382812 14.496094 -19.695312 14.023438 -19.722656 L 8.613281 -20.039062 C 8.167969 -20.0625 7.957031 -19.800781 8.113281 -19.355469 L 8.71875 -17.726562 L 2.574219 -2.519531 C 2.417969 -2.128906 2.023438 -1.757812 1.550781 -1.523438 C 1.285156 -1.390625 1.101562 -1.261719 0.894531 -1.128906 C 0.445312 -0.8125 0.683594 0 1.234375 0 Z M 9.585938 -15.390625 L 12.816406 -6.695312 L 6.144531 -6.695312 Z M 9.585938 -15.390625 "/></g></g></g><g fill="#000000" fill-opacity="1"><g transform="translate(260.217004, 220.168203)"><g><path d="M 0.761719 -17.910156 C 0.894531 -17.804688 1.078125 -17.699219 1.285156 -17.59375 C 1.707031 -17.386719 1.996094 -16.9375 1.996094 -16.464844 L 1.996094 -2.574219 C 1.996094 -2.101562 1.707031 -1.65625 1.285156 -1.445312 C 1.078125 -1.339844 0.894531 -1.234375 0.761719 -1.128906 C 0.316406 -0.8125 0.550781 0 1.078125 0 L 15.914062 0 C 16.386719 0 16.78125 -0.316406 16.886719 -0.761719 C 17.070312 -1.46875 17.332031 -2.546875 17.464844 -3.492188 C 17.59375 -4.203125 17.203125 -4.597656 16.703125 -4.597656 C 16.335938 -4.597656 15.941406 -4.386719 15.652344 -3.9375 C 14.941406 -2.863281 14.550781 -1.574219 11.816406 -1.574219 L 9.21875 -1.574219 C 8.746094 -1.574219 8.429688 -1.890625 8.429688 -2.363281 L 8.429688 -16.464844 C 8.429688 -16.914062 8.691406 -17.359375 9.113281 -17.621094 C 9.246094 -17.699219 9.402344 -17.804688 9.558594 -17.910156 C 10.007812 -18.226562 9.769531 -19.039062 9.21875 -19.039062 L 1.078125 -19.039062 C 0.550781 -19.039062 0.316406 -18.226562 0.761719 -17.910156 Z M 0.761719 -17.910156 "/></g></g></g><g fill="#000000" fill-opacity="1"><g transform="translate(278.493145, 220.168203)"><g><path d="M 0.761719 -17.859375 C 0.894531 -17.753906 1.078125 -17.648438 1.285156 -17.542969 C 1.707031 -17.332031 1.996094 -16.886719 1.996094 -16.414062 L 1.996094 -2.574219 C 1.996094 -2.101562 1.707031 -1.65625 1.285156 -1.445312 C 1.078125 -1.339844 0.894531 -1.234375 0.761719 -1.128906 C 0.316406 -0.8125 0.550781 0 1.078125 0 L 16.703125 0 C 17.175781 0 17.570312 -0.316406 17.675781 -0.761719 C 17.859375 -1.46875 18.121094 -2.546875 18.253906 -3.492188 C 18.382812 -4.203125 17.988281 -4.597656 17.492188 -4.597656 C 17.121094 -4.597656 16.730469 -4.386719 16.441406 -3.9375 C 15.730469 -2.863281 15.335938 -1.574219 12.605469 -1.574219 L 9.21875 -1.574219 C 8.746094 -1.574219 8.429688 -1.890625 8.429688 -2.363281 L 8.429688 -9.085938 L 10.320312 -9.085938 C 13.734375 -9.085938 12.578125 -6.984375 13.761719 -6.878906 C 15.128906 -6.75 15.285156 -13 13.894531 -12.949219 C 12.632812 -12.894531 13.734375 -10.636719 10.320312 -10.636719 L 8.429688 -10.636719 L 8.429688 -16.625 C 8.429688 -17.097656 8.746094 -17.410156 9.21875 -17.410156 L 12.082031 -17.410156 C 14.8125 -17.410156 15.207031 -16.097656 15.914062 -15.023438 C 16.203125 -14.601562 16.597656 -14.390625 16.9375 -14.390625 C 17.4375 -14.390625 17.832031 -14.757812 17.726562 -15.496094 C 17.570312 -16.441406 17.332031 -17.492188 17.148438 -18.199219 C 17.042969 -18.671875 16.625 -18.988281 16.152344 -18.988281 L 1.078125 -18.988281 C 0.550781 -18.988281 0.316406 -18.171875 0.761719 -17.859375 Z M 0.761719 -17.859375 "/></g></g></g></svg>