<?xml version="1.0" encoding="utf-8"?>
<!-- Generator: Adobe Illustrator 24.0.1, SVG Export Plug-In . SVG Version: 6.00 Build 0)  -->
<svg version="1.1" id="Layer_1" xmlns="http://www.w3.org/2000/svg" xmlns:xlink="http://www.w3.org/1999/xlink" x="0px" y="0px"
	 viewBox="0 0 512 512" style="enable-background:new 0 0 512 512;" xml:space="preserve">
<style type="text/css">
	.st0{fill:#FEC700;}
	.st1{fill:#4D5152;}
</style>
<polygon class="st0" points="429.6,256 449.6,256 449.6,266 474.7,266 439.5,327 404.2,266 429.6,266 "/>
<polygon class="st0" points="82.4,256 62.4,256 62.4,246 37.3,246 72.5,185 107.8,246 82.4,246 "/>
<g>
	<path class="st1" d="M256.8,211.3c0-14.2-5.5-27.5-15.5-37.5c-10-10-23.3-15.5-37.5-15.5s-27.5,5.5-37.5,15.5l14.1,14.1
		c6.2-6.2,14.5-9.7,23.4-9.7s17.1,3.4,23.4,9.7c6.2,6.2,9.7,14.5,9.7,23.4s-3.4,17.1-9.7,23.4l-89.2,89.2h108.9v-20h-60.6l55-55
		C251.3,238.8,256.8,225.5,256.8,211.3z"/>
	<polygon class="st1" points="359.6,274.1 339.6,274.1 339.6,303.9 299.7,303.9 358.7,172.4 340.5,164.2 268.8,323.9 339.6,323.9 
		339.6,353.7 359.6,353.7 359.6,323.9 374.1,323.9 374.1,303.9 359.6,303.9 	"/>
	<path class="st1" d="M62.4,266v-20H37.3l35.2-61l35.2,61H82.4v20h60L72.5,145L2.7,266h39.7c0,53.9,21,104.6,59.1,142.8
		c38.1,38.1,88.8,59.1,142.8,59.1v-20c-48.6,0-94.3-18.9-128.6-53.3S62.4,314.6,62.4,266z"/>
	<rect x="264.3" y="447.9" class="st1" width="20" height="20"/>
	<path class="st1" d="M469.6,246c0-53.9-21-104.6-59.1-142.8c-38.1-38.1-88.8-59.1-142.8-59.1v20c48.6,0,94.3,18.9,128.6,53.3
		s53.3,80,53.3,128.6v20h25.1l-35.2,61l-35.2-61h25.4v-20h-60l69.9,121l69.9-121H469.6z"/>
	<rect x="227.7" y="44.1" class="st1" width="20" height="20"/>
</g>
</svg>
