<?xml version="1.0" encoding="utf-8"?>
<!-- Generator: Adobe Illustrator 24.0.1, SVG Export Plug-In . SVG Version: 6.00 Build 0)  -->
<svg version="1.1" id="Layer_1" xmlns="http://www.w3.org/2000/svg" xmlns:xlink="http://www.w3.org/1999/xlink" x="0px" y="0px"
	 viewBox="0 0 512 512" style="enable-background:new 0 0 512 512;" xml:space="preserve">
<style type="text/css">
	.st0{fill:#FEC700;}
	.st1{fill:#E6E6E6;}
	.st2{fill:#4D5152;}
</style>
<g>
	<path class="st0" d="M379.4,194.7c-45.4,0-82.3-36.9-82.3-82.3S334,30,379.4,30s82.3,36.9,82.3,82.3S424.8,194.7,379.4,194.7z"/>
</g>
<g>
	<path class="st1" d="M107.6,72.2v28.7h170c1.1-10.1,3.7-19.7,7.6-28.7h-34.9v-10h-60v10H107.6z"/>
</g>
<g>
	<path class="st0" d="M313.4,190.5c2.8,2.3,5.7,4.6,8.7,6.6V442H90.3V200.5h191.8v-10L313.4,190.5z"/>
</g>
<g>
	<path class="st2" d="M379.4,10c-34,0-64.1,16.6-82.7,42.2h-26.3V10H142.1v42.2H87.6v22.7H30.3V502h351.8V214.6
		c55.2-1.4,99.6-46.8,99.6-102.3C481.7,55.9,435.8,10,379.4,10z M107.6,72.2h82.7v-20h-28.2V30h88.2v42.2h34.9
		c-3.8,9-6.4,18.6-7.6,28.7h-170V72.2z M50.3,94.9h37.3v26.1h189.8c0.6,6.7,1.8,13.2,3.6,19.5H50.3V94.9z M362.1,482H50.3V160.5
		h238.8c7.9,14.7,19.2,27.3,33,36.6V442H90.3V200.5h191.8v-20H70.3V462h271.8V207.6c6.4,2.5,13.1,4.4,20,5.6V482z M379.4,194.7
		c-45.4,0-82.3-36.9-82.3-82.3S334,30,379.4,30s82.3,36.9,82.3,82.3S424.8,194.7,379.4,194.7z"/>
	<polygon class="st2" points="362.8,129.7 339.9,106.8 325.8,120.9 362.8,158 432.9,87.9 418.8,73.7 	"/>
	<rect x="282.1" y="236.1" class="st2" width="20" height="20"/>
	<rect x="110.3" y="236.1" class="st2" width="151.8" height="20"/>
	<rect x="110.3" y="314.2" class="st2" width="20" height="20"/>
	<rect x="150.3" y="314.2" class="st2" width="151.8" height="20"/>
	<rect x="282.1" y="392.4" class="st2" width="20" height="20"/>
	<rect x="110.3" y="392.4" class="st2" width="151.8" height="20"/>
	<rect x="210.3" y="52.2" class="st2" width="20" height="20"/>
</g>
</svg>
