<?xml version="1.0" encoding="utf-8"?>
<!-- Generator: Adobe Illustrator 24.0.1, SVG Export Plug-In . SVG Version: 6.00 Build 0)  -->
<svg version="1.1" id="Layer_1" xmlns="http://www.w3.org/2000/svg" xmlns:xlink="http://www.w3.org/1999/xlink" x="0px" y="0px"
	 viewBox="0 0 512 512" style="enable-background:new 0 0 512 512;" xml:space="preserve">
<style type="text/css">
	.st0{fill:#FEC700;}
	.st1{fill:#4D5152;}
</style>
<path class="st0" d="M340.1,241.8v-20h10v-31.6h41.2v69.5H482v29.1h-16.5v20H482V338h-23.9c-4.5-19-21.7-33.3-42.1-33.3
	S378.5,319,374,338h-23.9v-96.2H340.1z"/>
<g>
	<path class="st1" d="M432.9,170.2h-82.8v-49.5H64.3v41h20v-21h245.8v81h20v-31.6h41.2v69.5H482v29.1h-16.5v20H482V338h-23.9
		c-4.5-19-21.7-33.3-42.1-33.3S378.5,319,374,338h-23.9v-96.2h-20V338H210.2c-4.5-19-21.7-33.3-42.1-33.3s-37.5,14.3-42,33.3H84.3
		v-36.2h-20V358H126c4.5,19,21.7,33.3,42.1,33.3s37.6-14.2,42.1-33.3H374c4.5,19,21.7,33.3,42.1,33.3s37.6-14.2,42.1-33.3H502V245.8
		L432.9,170.2z M411.3,239.7v-49.5H424l45.3,49.5H411.3z M168.1,371.3c-12.8,0-23.3-10.4-23.3-23.3c0-12.8,10.4-23.3,23.3-23.3
		s23.3,10.4,23.3,23.3C191.4,360.8,181,371.3,168.1,371.3z M416.1,371.3c-12.8,0-23.3-10.4-23.3-23.3c0-12.8,10.4-23.3,23.3-23.3
		c12.8,0,23.3,10.4,23.3,23.3C439.3,360.8,428.9,371.3,416.1,371.3z"/>
	<rect x="158.1" y="338" class="st1" width="20" height="20"/>
	<rect x="406.1" y="338" class="st1" width="20" height="20"/>
	<rect x="50" y="221.8" class="st1" width="66.2" height="20"/>
	<rect x="10" y="221.8" class="st1" width="20" height="20"/>
	<rect x="104.3" y="181.8" class="st1" width="66.2" height="20"/>
	<rect x="64.3" y="181.8" class="st1" width="20" height="20"/>
	<rect x="104.3" y="261.8" class="st1" width="66.2" height="20"/>
	<rect x="64.3" y="261.8" class="st1" width="20" height="20"/>
</g>
</svg>
