<?xml version="1.0" encoding="utf-8"?>
<!-- Generator: Adobe Illustrator 24.0.1, SVG Export Plug-In . SVG Version: 6.00 Build 0)  -->
<svg version="1.1" id="Layer_1" xmlns="http://www.w3.org/2000/svg" xmlns:xlink="http://www.w3.org/1999/xlink" x="0px" y="0px"
	 viewBox="0 0 512 512" style="enable-background:new 0 0 512 512;" xml:space="preserve">
<style type="text/css">
	.st0{fill:#FEC700;}
	.st1{fill:#4D5152;}
</style>
<path class="st0" d="M248.9,159.3l87.3,50.4v178.3l45.1-26V183.2l-194-112l-45.5,26.2l53.3,30.8l-4.9,8.5l18.4,9.6l4.5-7.7
	l17.9,10.4l-4.5,7.9l17.5,11.1L248.9,159.3z"/>
<g>
	<path class="st1" d="M256,8.5L41.6,132.2v247.5L256,503.5l214.4-123.8V132.2L256,8.5z M440.4,138l-48.7,28.1L207.3,59.7L256,31.5
		L440.4,138z M248.9,159.3l-10,17.3l67.3,38.8l-50.2,29L71.6,138l50.2-29l63.3,36.6l10-17.3l-53.3-30.8l45.5-26.2l194,112v178.7
		l-45.1,26V209.7L248.9,159.3z M266,474.7v-91.2h-20v91.2L61.6,368.2V155.3L246,261.8v101.7h20V261.8l50.2-29v189.8l85.1-49.1V183.6
		l49.1-28.3v212.9L266,474.7z"/>
	<rect x="207.1" y="142.1" transform="matrix(0.5 -0.866 0.866 0.5 -23.4741 264.185)" class="st1" width="20" height="20.7"/>
</g>
</svg>
