<?xml version="1.0" encoding="UTF-8"?>
<!DOCTYPE svg PUBLIC "-//W3C//DTD SVG 1.1//EN" "http://www.w3.org/Graphics/SVG/1.1/DTD/svg11.dtd">
<!-- Creator: CorelDRAW 2019 (64-Bit) -->
<svg xmlns="http://www.w3.org/2000/svg" xml:space="preserve" width="2202px" height="720px" version="1.1" style="shape-rendering:geometricPrecision; text-rendering:geometricPrecision; image-rendering:optimizeQuality; fill-rule:evenodd; clip-rule:evenodd"
viewBox="0 0 2202 720.02"
 xmlns:xlink="http://www.w3.org/1999/xlink"
 xmlns:xodm="http://www.corel.com/coreldraw/odm/2003">
 <defs>
  <style type="text/css">
   <![CDATA[
    .fil0 {fill:#FEFEFE}
    .fil2 {fill:#003399}
    .fil1 {fill:#003399;fill-rule:nonzero}
   ]]>
  </style>
 </defs>
 <g id="Layer_x0020_1">
  <metadata id="CorelCorpID_0Corel-Layer"/>
  <path class="fil0" d="M365.07 24.63c-0.73,0 -1.45,0 -2.17,0 -96.7,0 -189.78,22.45 -279.96,67.73 -36.58,86.92 -57.22,175.29 -58.31,265.48 -1.45,89.45 17.02,181.08 57.95,274.53 94.16,40.92 188.32,61.93 282.49,63.02 94.16,-1.09 188.33,-22.1 282.49,-63.02 40.93,-93.45 59.4,-185.08 57.95,-274.53 -1.09,-90.19 -21.73,-178.56 -58.31,-265.48 -90.18,-45.28 -183.26,-67.73 -279.96,-67.73 -0.72,0 -1.44,0 -2.17,0z"/>
  <path class="fil1" d="M67.73 72.44l0 0c94.89,-48.54 193.4,-72.44 295.17,-72.44 0.72,0 1.44,0 2.17,0 0.73,0 1.45,0 2.17,0 101.77,0 200.28,23.9 295.17,72.44l0 0 5.8 6.15c38.75,91.27 60.84,184.35 61.93,278.88 0,1.81 0,3.26 0,5.07l0 6.52c-0.36,90.91 -19.92,183.63 -61.93,277.8l-6.52 6.15c-98.87,43.83 -197.75,65.92 -296.62,67.01 -98.87,-1.09 -197.75,-23.18 -296.62,-67.01l-6.52 -6.15c-42.01,-94.17 -61.57,-186.89 -61.93,-277.8l0 -6.52c0,-1.81 0,-3.26 0,-5.07 1.09,-94.53 23.18,-187.61 61.93,-278.88l5.8 -6.15zm297.34 -47.81c-0.73,0 -1.45,0 -2.17,0 -96.7,0 -189.78,22.45 -279.96,67.73 -36.58,86.92 -57.22,175.29 -58.31,265.48 -1.45,89.45 17.02,181.08 57.95,274.53 94.16,40.92 188.32,61.93 282.49,63.02 94.16,-1.09 188.33,-22.1 282.49,-63.02 40.93,-93.45 59.4,-185.08 57.95,-274.53 -1.09,-90.19 -21.73,-178.56 -58.31,-265.48 -90.18,-45.28 -183.26,-67.73 -279.96,-67.73 -0.72,0 -1.44,0 -2.17,0z"/>
  <path class="fil2" d="M371.59 561.02c-5.07,-69.18 -1.81,-141.25 -22.46,-207.17 -19.19,-61.57 -91.99,-96.7 -93.44,-164.43 -1.45,-52.88 38.76,-114.09 114.09,-114.09 70.62,-0.36 114.44,51.07 119.51,108.3 6.16,66.28 -74.24,110.82 -95.25,173.84 -21.73,64.47 -15.57,135.82 -22.45,203.55z"/>
  <path class="fil2" d="M399.48 544.36c-2.9,-60.12 -2.9,-117.71 13.76,-168.78 18.47,-57.95 56.86,-106.84 115.53,-122.78 40.2,-10.86 99.24,36.22 89.82,84.39 -7.97,38.75 -46.72,84.39 -109.01,89.46 -28.98,2.54 -41.29,25.71 -59.4,39.12 81.13,-7.97 133.64,-39.85 170.22,-73.17 5.43,28.25 9.05,75.7 -13.04,92 -43.46,30.78 -83.66,5.79 -134.73,20.28 -28.61,8.33 -46.35,26.44 -73.15,39.48z"/>
  <path class="fil2" d="M344.06 544.36c3.26,-60.12 2.9,-117.71 -13.4,-168.78 -18.47,-57.95 -56.86,-106.84 -115.53,-122.78 -40.2,-10.86 -99.6,36.22 -89.82,84.39 7.97,38.75 46.72,84.39 109.02,89.46 28.61,2.54 41.28,25.71 59.39,39.12 -81.49,-7.97 -133.64,-39.85 -170.22,-73.17 -5.43,28.25 -9.05,75.7 13.04,92 43.46,30.78 83.66,5.79 134.73,20.28 28.61,8.33 45.99,26.44 72.79,39.48z"/>
  <path class="fil2" d="M537.1 633.82l0 -9.78 7.24 -1.81 -7.24 -10.87 0 -18.11 32.6 45.28 -11.59 2.89 -7.97 -11.23 -13.04 3.63zm0 -40.57l0 0 0 18.11 -5.07 -7.24 -2.17 21.73 7.24 -1.81 0 9.78 -8.33 1.81 -1.45 13.4 -11.59 2.9 7.61 -59.04 11.59 -2.9 2.17 3.26zm-107.93 72.08l0 0 0 -9.42 2.54 0c3.98,-0.36 6.52,-0.72 7.6,-1.09 1.45,-0.36 2.9,-1.45 3.63,-2.53 1.08,-1.45 1.45,-2.9 1.45,-4.71 -0.37,-1.81 -0.73,-3.26 -1.82,-4.35 -0.72,-1.08 -2.17,-1.81 -3.62,-2.17 -1.45,-0.36 -4.71,-0.36 -9.78,0l0 -9.42c2.9,0 4.71,-0.36 5.44,-0.36 1.81,-0.36 3.26,-1.45 4.34,-2.53 1.09,-1.09 1.45,-2.54 1.09,-4.35 0,-1.81 -0.73,-3.26 -1.81,-3.98 -0.73,-1.09 -2.18,-1.81 -4.35,-1.81 -0.72,0 -2.17,0 -4.71,0.36l0 -9.42c3.99,-0.36 6.88,-0.36 8.7,0 2.17,0 4.34,0.73 6.15,1.81 1.81,0.73 3.26,2.17 4.71,3.99 1.09,1.81 1.81,3.98 2.17,6.51 0.37,2.54 -0.36,5.08 -1.45,7.25 -1.08,2.17 -2.89,3.98 -5.43,5.43 3.62,0.73 6.52,2.17 8.33,4.35 2.18,2.17 3.26,4.71 3.62,7.97 0,2.53 -0.36,5.07 -1.08,7.6 -1.09,2.54 -2.54,4.35 -4.35,6.16 -2.17,1.45 -4.34,2.53 -7.24,3.26 -1.81,0.36 -6.52,0.72 -13.4,1.45l-0.73 0zm68.45 -30.43l0 0 11.23 1.45c-0.72,6.16 -2.53,11.23 -5.79,14.85 -3.26,3.26 -7.97,5.8 -13.77,6.88 -7.24,1.09 -13.76,-0.36 -19.19,-4.34 -5.8,-4.35 -9.06,-10.51 -10.87,-19.2 -1.44,-9.05 -0.36,-16.66 3.63,-22.45 3.62,-5.8 9.41,-9.42 17.02,-10.87 6.88,-1.09 12.31,0 17.38,3.26 2.9,1.81 5.43,4.71 7.24,9.05l-10.5 4.35c-1.08,-2.53 -2.9,-4.71 -5.07,-5.79 -2.53,-1.45 -5.07,-1.81 -7.97,-1.45 -3.98,0.72 -6.88,2.89 -9.05,6.16 -2.17,3.62 -2.54,8.33 -1.45,14.84 1.45,6.89 3.62,11.59 6.52,14.13 2.9,2.54 6.52,3.62 10.5,2.9 2.9,-0.73 5.07,-2.18 6.88,-4.35 1.82,-2.17 2.9,-5.43 3.26,-9.42zm-68.45 -25.35l0 0 0 9.42c-1.44,0 -2.89,0.36 -4.7,0.36l-6.52 0.73 1.08 12.67 7.61 -0.72c0.72,0 1.81,0 2.53,-0.37l0 9.42c0,0 0,0 -0.36,0l-8.69 0.73 1.09 14.84 7.96 -0.72 0 9.42 -18.11 1.81 -5.07 -55.42 22.1 -1.81c0.36,-0.36 0.72,-0.36 1.08,-0.36zm-69.9 36.58l0 0 0 -9.42c2.54,0 3.99,-0.36 5.07,-0.72 1.45,-0.36 2.54,-1.45 3.63,-2.53 0.72,-1.45 1.08,-2.9 1.08,-4.35 0.37,-2.17 -0.36,-3.62 -1.45,-5.07 -1.08,-1.45 -2.53,-2.18 -4.34,-2.54 -1.09,0 -2.18,-0.36 -3.99,-0.36l0 -9.42c5.44,0 8.7,0.37 10.51,1.09 3.26,0.72 5.79,2.54 7.96,5.43 2.18,2.9 3.26,6.52 2.9,10.87 0,3.26 -0.72,6.16 -1.81,8.69 -1.45,2.18 -2.9,3.99 -4.71,5.43 -2.17,1.09 -3.98,1.81 -6.15,2.54 -2.18,0.36 -5.07,0.36 -8.7,0.36zm0 -34.41l0 0 0 9.42c-1.08,0 -2.53,0 -4.34,0l-5.43 -0.36 0 15.93 5.79 0c1.45,0 2.9,0 3.98,0l0 9.42c-0.72,0 -1.81,0 -2.89,0l-7.25 0 -0.36 21.01 -11.23 -0.37 1.09 -55.41 17.75 0.36c1.08,0 2.17,0 2.89,0zm-104.66 28.98l0 0 0 -17.02c3.26,0.72 5.43,0.72 6.52,0.72 1.45,-0.36 2.53,-0.72 3.62,-1.81 0.72,-1.09 1.45,-2.17 1.81,-3.98 0.36,-1.81 0,-3.26 -0.73,-4.71 -0.72,-1.45 -2.17,-2.18 -3.98,-2.9 -0.72,-0.36 -3.26,-0.72 -7.24,-1.45l0 -9.42 4.71 0.73c5.79,1.09 9.77,2.17 12.31,3.62 2.53,1.45 4.35,3.62 5.43,6.52 1.09,2.53 1.45,5.8 0.73,9.06 -0.73,3.98 -2.54,7.24 -5.44,9.41 -2.53,2.17 -6.52,3.26 -11.59,3.26 2.18,1.81 3.99,3.62 5.07,5.43 1.45,2.18 2.9,5.44 4.71,10.15l4.71 11.95 -13.04 -2.54 -5.79 -13.4c-0.73,-1.09 -1.09,-2.53 -1.81,-3.62zm31.87 -34.41l0 0 10.86 1.09 -2.53 30.06c-0.36,4.71 -0.36,7.97 -0.36,9.05 0.36,2.54 1.44,4.35 2.89,5.8 1.81,1.81 3.99,2.53 7.25,2.9 3.26,0.36 5.79,-0.37 7.24,-1.45 1.81,-1.09 2.9,-2.54 3.62,-4.35 0.36,-1.81 0.73,-5.07 1.09,-9.41l2.53 -30.79 11.23 1.09 -2.53 28.97c-0.37,6.88 -1.09,11.59 -2.18,14.12 -0.72,2.54 -2.17,5.07 -3.62,6.52 -1.81,1.82 -4.34,3.26 -7.24,3.99 -2.54,1.09 -6.16,1.09 -10.51,0.72 -5.43,-0.36 -9.41,-1.45 -11.95,-2.89 -2.53,-1.45 -4.71,-3.27 -6.15,-5.08 -1.45,-2.17 -2.18,-4.34 -2.54,-6.51 -0.36,-3.26 -0.36,-7.97 0,-14.13l2.9 -29.7zm-88.01 16.3l0 0 2.17 -9.06 23.55 6.16 -5.8 21.37c-2.9,1.81 -6.52,2.9 -11.59,3.26 -4.71,0.36 -9.05,0 -13.4,-1.09 -5.79,-1.44 -10.5,-3.98 -13.76,-7.24 -3.62,-3.62 -5.8,-7.97 -6.88,-12.68 -0.73,-5.07 -0.73,-10.14 0.72,-15.21 1.45,-5.43 3.98,-10.14 7.61,-14.12 3.26,-3.63 7.6,-5.8 12.67,-6.88 3.99,-1.09 8.69,-0.73 13.77,0.72 6.51,1.81 11.58,4.35 14.48,8.33 2.9,3.62 4.35,8.33 3.99,13.4l-11.23 -0.72c0,-2.9 -0.73,-5.44 -2.54,-7.61 -1.81,-1.81 -3.98,-3.62 -7.24,-4.34 -4.71,-1.09 -8.69,-0.73 -12.31,1.44 -3.63,2.18 -6.16,6.52 -7.97,12.32 -1.81,6.52 -1.45,11.59 0.36,15.57 2.17,3.98 5.43,6.52 9.78,7.61 2.53,0.72 4.71,0.72 7.24,0.72 2.54,-0.36 4.71,-1.08 6.88,-1.81l1.81 -6.88 -12.31 -3.26zm56.14 -22.46l0 0 -18.84 -3.25 -9.41 54.68 10.86 1.81 3.99 -22.81 2.53 0.36c2.54,0.36 4.35,1.09 5.43,1.45 1.09,0.72 1.81,1.81 2.9,2.9 0.36,1.08 1.45,2.89 2.54,5.43l0 -17.02c-1.09,0 -2.18,-0.37 -3.63,-0.37l-7.96 -1.45 2.17 -13.76 8.69 1.45c0.36,0 0.73,0 0.73,0l0 -9.42z"/>
  <path class="fil2" d="M1980.71 532.41l0 -102.14 44.91 0 0 -179.64 -44.91 89.82 0 -224.19 176.38 0 44.91 516.47 -176.38 0 0 -100.32 -44.91 0zm0 -416.15l0 0 0 224.19 -44.91 89.82 44.91 0 0 102.14 -84.74 0 -34.77 94.89 -109.38 0 0 -118.07 122.05 -263.31 -24.99 0 69.54 -129.66 62.29 0zm-228.89 172.04l0 0 54.69 -129.67 -54.69 -30.42 0 160.09zm-434.97 -49.62l0 0c2.54,-14.85 2.54,-29.34 0,-43.1l0 43.1zm434.97 -110.47l0 0 0 160.09 -7.24 17.38c-107.93,-77.14 -267.28,-6.88 -276.34,74.61 -9.05,85.11 55.78,153.93 221.29,102.5l-56.86 152.11c-218.39,24.27 -303.14,-62.29 -315.82,-163.34l0 -57.22c3.26,-26.44 10.15,-52.16 19.56,-76.06 107.57,-267.29 282.13,-207.17 348.41,-212.24l9.78 -29.7 57.22 31.87zm0 381.02l0 0 -54.69 118.07 54.69 0 0 -118.07zm-631.26 114.81l0 0c116.98,-23.18 231.79,-163.71 116.62,-275.62 44.91,-23.91 72.79,-67 79.67,-109.74l0 -43.1c-7.96,-44.55 -42.37,-80.77 -107.2,-81.86l-89.09 -1.81 0 99.24 36.94 0c39.48,0 34.41,102.14 -14.85,102.14l-22.09 0 0 78.23c53.24,10.14 34.4,84.02 0,106.84l0 125.68zm196.29 -209.7l0 0 0 57.22c-2.17,-18.83 -2.17,-38.03 0,-57.22zm-350.58 -305.69l0 0 -72.07 139.81 32.23 -2.54 -86.92 381.38 248.81 0c10.87,0 21.37,-1.09 32.24,-3.26l0 -125.68c-6.16,4.35 -13.04,6.88 -19.92,6.88l-89.46 0 29.7 -114.81 67 0c4.71,0 9.06,0.36 12.68,1.09l0 -78.23 -62.3 0 24.99 -102.14 37.31 0 0 -99.24 -154.29 -3.26z"/>
 </g>
</svg>
