<?xml version="1.0" encoding="UTF-8"?>
<!DOCTYPE svg PUBLIC "-//W3C//DTD SVG 1.1//EN" "http://www.w3.org/Graphics/SVG/1.1/DTD/svg11.dtd">
<!-- Creator: CorelDRAW 2019 (64-Bit) -->
<svg xmlns="http://www.w3.org/2000/svg" xml:space="preserve" width="3278px" height="1080px" version="1.1" style="shape-rendering:geometricPrecision; text-rendering:geometricPrecision; image-rendering:optimizeQuality; fill-rule:evenodd; clip-rule:evenodd"
viewBox="0 0 3278 1080.08"
 xmlns:xlink="http://www.w3.org/1999/xlink"
 xmlns:xodm="http://www.corel.com/coreldraw/odm/2003">
 <defs>
  <style type="text/css">
   <![CDATA[
    .fil3 {fill:white}
    .fil4 {fill:black;fill-rule:nonzero}
    .fil0 {fill:#00AA11;fill-rule:nonzero}
    .fil2 {fill:#00AED6;fill-rule:nonzero}
    .fil1 {fill:black;fill-rule:nonzero}
   ]]>
  </style>
 </defs>
 <g id="Layer_x0020_1">
  <metadata id="CorelCorpID_0Corel-Layer"/>
  <path class="fil0" d="M1781.21 933.9c-3.4,63.44 -31.67,106.89 -85.87,133.19 -15.75,7.64 -30.44,1.6 -37.61,-14.54 -5.52,-12.44 0.8,-26.6 15.64,-33.21 38.38,-17.12 55.23,-52.21 54.51,-85.27 -0.88,-40.19 -24.96,-70.84 -62.83,-84.02 -36.47,-12.69 -74.56,-0.38 -101.46,32.81 -20.67,25.49 -22.45,69.5 -4.31,99.02 10.05,16.37 23.36,28.72 40.83,36.95 16.45,7.76 22.26,22.07 15.61,36.23 -6.8,14.46 -22.9,19.09 -39.07,10.93 -43.42,-21.91 -71.86,-55.95 -80.56,-104.25 -13.76,-76.35 33.93,-144.85 102.65,-163.85 81.22,-22.46 159.24,28.84 177.39,103.11 2.87,11.73 3.74,23.94 5.08,32.9z"/>
  <path class="fil1" d="M1988.6 856.38c0.43,-6.07 0.77,-10.92 1.15,-16.44 14.05,0 27.58,0 41.94,0 0.32,3.08 0.88,5.99 0.88,8.9 0.04,49.57 0.3,99.13 -0.09,148.7 -0.24,30.59 -12.04,55.72 -39.36,71.16 -34.24,19.35 -87.63,13.24 -118.23,-12.46 -2.88,-2.42 -5.62,-5 -8.99,-8.01 9.1,-8.95 18.01,-17.73 27.81,-27.37 15.28,12.26 32.4,18.42 52.4,17.82 30.84,-0.92 46.03,-17.82 42.01,-50.68 -25.81,20.2 -54.3,20.96 -83.21,11.3 -17.25,-5.77 -30.89,-17.32 -40.54,-33.41 -20.39,-34 -15.14,-77.14 13.09,-103.47 30.26,-28.22 76.02,-31.12 111.14,-6.04zm-1.75 65.86l0 0c0,-28.71 -15.6,-44.37 -43.97,-44.11 -26.67,0.24 -44.65,17.72 -45.63,42.07 -1.28,31.71 19.35,46 46.64,45.62 28.03,-0.37 42.96,-15.21 42.96,-43.58z"/>
  <path class="fil1" d="M2699.77 839.43c-25.87,24.4 -49.43,46.62 -73.33,69.16 24.31,32.33 48.09,63.95 73.49,97.74 -17.37,0 -31.74,0.43 -46.05,-0.32 -3.34,-0.17 -7.29,-3.73 -9.57,-6.77 -13.2,-17.66 -25.98,-35.64 -38.93,-53.49 -2.18,-3.01 -4.49,-5.91 -8.38,-11.02 -9.33,10.66 -21.2,19.06 -25.24,30.29 -4.24,11.75 -0.95,26.21 -0.95,41.33 -7.75,0 -14.46,0 -21.17,0 -6.41,0 -12.81,0 -20.27,0 -0.29,-4.96 -0.73,-9 -0.73,-13.03 -0.05,-62.53 0.3,-125.06 -0.33,-187.59 -0.12,-12.01 3.57,-15.51 14.95,-14.28 8.58,0.93 17.34,0.19 27.38,0.19 0,37.98 0,74.63 0,114.39 13.15,-11.85 24.07,-21.53 34.81,-31.42 10.91,-10.04 21.54,-20.39 32.52,-30.36 2.38,-2.16 5.7,-4.53 8.64,-4.61 16.59,-0.44 33.2,-0.21 53.16,-0.21z"/>
  <path class="fil1" d="M2376.2 937.08c2.6,17.65 19.48,31.12 38.93,32.68 16.43,1.32 31.83,-1.08 45.26,-11.76 2.14,-1.71 6.77,-3.06 8.62,-1.92 8.98,5.5 17.4,11.91 26.85,18.6 -29.14,29.01 -62.28,37 -100.42,27.58 -30.99,-7.66 -53.48,-25.05 -60.76,-56.86 -15.83,-69.22 37.48,-114.96 99.09,-104.52 35.75,6.05 58.02,27.01 66.4,61.96 2.5,10.45 1.78,21.68 2.65,34.24 -22.37,0 -43.23,0 -64.08,0 -20.55,0 -41.1,0 -62.54,0zm82.71 -31.91l0 0c-2.91,-20.75 -19.39,-30.66 -47.19,-29.36 -19.91,0.94 -33.4,12.26 -34.39,29.36 26.99,0 53.95,0 81.58,0z"/>
  <path class="fil1" d="M2146.23 837.08c49.28,1.96 85.87,32.64 89.55,80.4 2.51,32.58 -11.82,58.74 -40.49,76.31 -32.82,20.12 -84.87,14.74 -112.66,-12.12 -41.66,-40.27 -28.93,-111.32 24.45,-133.63 12.41,-5.19 26.07,-7.38 39.15,-10.96zm44.8 85.89l0 0c-0.08,-27.1 -17.38,-45.04 -43.55,-44.84 -29.36,0.22 -44.69,19.15 -45.67,44.95 -0.95,24.78 20.31,44.68 45.2,44.5 26.58,-0.2 44.11,-17.96 44.02,-44.61z"/>
  <path class="fil1" d="M2261.63 839.56c15.1,0 28.39,0 43.49,0 0,3.7 0,7.31 0,10.93 0,60.28 0.03,120.56 -0.03,180.85 -0.02,30.42 -17.76,48.11 -48.17,48.21 -11.73,0.05 -23.46,0.01 -36.45,0.01 0,-7.15 0,-13.14 0,-19.13 0,-6.04 0,-12.09 0,-20.26 7.86,0 14.96,0.28 22.03,-0.06 16.09,-0.78 19.13,-4.06 19.13,-19.92 0.01,-55.71 0,-111.41 0,-167.12 0,-4.12 0,-8.24 0,-13.51z"/>
  <path class="fil0" d="M1584.13 934.56c-3.29,-24.4 27.62,-53.78 53.89,-52.06 29.05,1.91 53.12,24.59 52.93,53.6 -0.18,28.92 -25.28,54.47 -54.22,53.7 -28.93,-0.77 -54.31,-23.69 -52.6,-55.24z"/>
  <path class="fil1" d="M578.07 859.74l44.9 0c24.43,0 38.9,13.8 38.9,35.91 0,22.45 -14.3,35.58 -38.9,35.58l-31.26 0 0 44.9 -13.64 0 0 -116.39zm44.06 58.53l0 0c17.79,0 25.94,-7.15 25.94,-22.62 0,-15.46 -8.48,-22.94 -25.94,-22.94l-30.42 0 0 45.56 30.42 0z"/>
  <path class="fil1" d="M710.1 885.51c24.94,0 41.57,18.79 41.57,46.56 0,27.76 -16.63,46.55 -41.57,46.55 -24.77,0 -41.4,-18.79 -41.4,-46.55 0,-27.77 16.63,-46.56 41.4,-46.56zm0 12.14l0 0c-17.46,0 -28.43,13.3 -28.43,34.42 0,21.11 10.97,34.42 28.43,34.42 17.46,0 28.6,-13.31 28.6,-34.42 0,-21.12 -11.14,-34.42 -28.6,-34.42z"/>
  <polygon class="fil1" points="760,888 772.8,888 788.76,956.51 789.1,956.51 812.71,888 824.51,888 848.12,956.51 848.45,956.51 864.42,888 877.22,888 856.11,976.13 843.8,976.13 818.86,904.13 818.53,904.13 793.42,976.13 781.11,976.13 "/>
  <path class="fil1" d="M926.45 885.51c23.61,0 39.4,17.79 39.4,43.73l0 6.65 -67 0c0.33,16.96 11.14,30.93 27.27,30.93 12.47,0 19.45,-4.49 26.93,-17.63l10.81 6.49c-7.48,15.13 -20.28,22.94 -37.41,22.94 -24.44,0 -40.74,-18.79 -40.74,-46.55 0,-27.77 16.8,-46.56 40.74,-46.56zm26.27 39.9l0 0c-0.17,-8.14 -2.82,-14.79 -7.65,-20.11 -4.82,-5.33 -10.97,-7.98 -18.62,-7.98 -14.96,0 -26.93,13.3 -27.27,28.09l53.54 0z"/>
  <path class="fil1" d="M984.33 888l12.3 0 0 7.32 0.33 0c3.33,-5.48 9.81,-8.81 18.29,-8.81 2.66,0 5.66,0.5 8.82,1.33l-2.84 13.46c-3.15,-0.99 -6.15,-1.49 -8.64,-1.49 -10.48,0 -15.3,6.99 -15.3,23.45l0 52.87 -12.96 0 0 -88.13z"/>
  <path class="fil1" d="M1070.79 885.51c23.62,0 39.41,17.79 39.41,43.73l0 6.65 -67.01 0c0.33,16.96 11.14,30.93 27.27,30.93 12.47,0 19.46,-4.49 26.93,-17.63l10.81 6.49c-7.48,15.13 -20.28,22.94 -37.41,22.94 -24.44,0 -40.73,-18.79 -40.73,-46.55 0,-27.77 16.79,-46.56 40.73,-46.56zm26.28 39.9l0 0c-0.17,-8.14 -2.83,-14.79 -7.65,-20.11 -4.83,-5.33 -10.98,-7.98 -18.63,-7.98 -14.96,0 -26.93,13.3 -27.27,28.09l53.55 0z"/>
  <path class="fil1" d="M1164.91 885.51c10.64,0 20.12,4.49 25.95,11.81l0.32 0 0 -42.57 12.98 0 0 121.38 -12.47 0 0 -8.82 -0.34 0c-5.82,7.16 -15.63,11.31 -26.44,11.31 -22.94,0 -39.57,-19.12 -39.57,-46.55 0,-27.44 16.63,-46.56 39.57,-46.56zm26.27 37.91l0 0c0,-14.3 -11.63,-25.77 -26.27,-25.77 -15.79,0 -26.6,13.63 -26.6,34.42 0,20.78 10.81,34.42 27.44,34.42 13.97,0 25.43,-11.64 25.43,-25.94l0 -17.13z"/>
  <path class="fil1" d="M1283.48 967.31l0 8.82 -12.47 0 0 -121.38 12.97 0 0 42.57 0.33 0c5.83,-7.32 15.3,-11.81 25.94,-11.81 22.95,0 39.57,19.12 39.57,46.56 0,27.43 -16.62,46.55 -39.57,46.55 -10.81,0 -20.62,-4.15 -26.44,-11.31l-0.33 0zm26.77 -69.66l0 0c-14.63,0 -26.27,11.47 -26.27,25.77l0 17.13c0,14.3 11.47,25.94 25.44,25.94 16.63,0 27.44,-13.64 27.44,-34.42 0,-20.79 -10.81,-34.42 -26.61,-34.42z"/>
  <polygon class="fil1" points="1388.08,968.65 1354.16,888 1367.96,888 1394.73,953.68 1395.07,953.68 1422,888 1435.8,888 1382.93,1013.54 1369.46,1013.54 "/>
  <path class="fil2" d="M357.63 0c197.52,0 357.64,154.52 357.64,345.13 0,190.62 -160.12,345.14 -357.64,345.14 -197.51,0 -357.63,-154.52 -357.63,-345.14 0,-190.61 160.12,-345.13 357.63,-345.13z"/>
  <path class="fil3" d="M566.25 334.49c-2.72,-43.92 -41.47,-77.6 -87.02,-75.64l-225.9 0c-8.24,0 -14.91,-6.44 -14.91,-14.38 0,-7.94 6.67,-14.38 14.91,-14.38l228.88 0c-1.34,-29.77 -22.4,-55.32 -52.16,-63.27 -66.72,-11.51 -135.03,-11.51 -201.76,0 -37.92,8.99 -66.29,39.44 -71.53,76.79 -10.43,67.69 -10.43,136.51 0,204.2 7.99,39.52 40.53,70.11 81.66,76.8 82.73,10.06 166.43,10.06 249.15,0 36.86,-7.21 64.75,-36.44 69.15,-72.48 7.57,-38.77 10.76,-78.21 9.53,-117.64zm-74.5 48.32l0 0 0 12.66c0,7.94 -6.67,14.38 -14.9,14.38 -8.23,0 -14.9,-6.44 -14.9,-14.38l0 -12.66c-4.82,-4.05 -7.54,-9.94 -7.46,-16.1 0,-11.92 10.01,-21.58 22.36,-21.58 12.34,0 22.35,9.66 22.35,21.58 -0.07,6.13 -2.77,11.96 -7.45,16.1z"/>
  <path class="fil4" d="M1733.92 306.31c0.49,-60.52 -49.95,-109.96 -112.66,-110.44 -62.7,-0.47 -113.94,48.2 -114.43,108.72 -0.49,60.52 49.94,109.96 112.65,110.43 0.6,0.01 1.19,0.01 1.78,0 59.5,3.08 110.32,-40.97 113.51,-98.39 0.19,-3.44 0.2,-6.88 0.04,-10.32l-0.89 0zm-337.37 0l0 0c0,-115.05 94.18,-202.77 224.71,-202.77 130.54,0 224.71,88.3 224.71,202.77 0,114.47 -93.28,203.05 -224.71,203.05 -131.43,0 -224.71,-88.29 -224.71,-203.05z"/>
  <path class="fil4" d="M1217.73 327.3c0,47.46 -50.06,86.29 -113.54,86.29 -58.3,5.68 -110.34,-35.32 -116.23,-91.58 -0.6,-5.69 -0.7,-11.43 -0.3,-17.14 0,-62.7 47.68,-105.84 121,-105.84 59.6,0 109.07,39.4 109.07,83.98l0 44.29zm4.48 -224.05l0 0 0 45.45c-36.28,-31.79 -84.32,-48.08 -133.22,-45.16 -115.63,1.03 -208.5,92.33 -207.43,203.92 1.07,111.59 95.67,201.21 211.3,200.18 47.61,2.05 93.95,-15.15 127.85,-47.46l0 38.83c0,52.63 -47.08,91.17 -109.07,91.17 -47.35,3.3 -93.98,-12.54 -128.75,-43.72l-72.42 67.31c54.3,51.43 128.11,79.09 204.15,76.5 126.96,0 213.98,-82.26 213.98,-191.84l0 -395.18 -106.39 0z"/>
  <path class="fil4" d="M1911.54 115.05l106.69 0 0 33.93 1.49 0c34.98,-30.77 81.17,-46.9 128.46,-44.86 116.12,4.22 206.71,98.48 202.34,210.55 -4.15,106.14 -92.36,191.27 -202.34,195.27 -45.18,1.01 -89.27,-13.35 -124.58,-40.56l0 192.13 -111.16 0 -0.9 -546.46zm219.35 83.98l0 0c-59.61,0 -108.19,39.98 -108.19,83.4l0 48.61c0,46.31 47.99,84.56 108.79,84.56 61.97,3.08 114.79,-42.9 117.99,-102.7 3.19,-59.81 -44.45,-110.79 -106.43,-113.87 -3.85,-0.19 -7.71,-0.19 -11.56,0l-0.6 0z"/>
  <path class="fil4" d="M2563.92 269.21c73.02,-9.5 94.77,-19.56 94.77,-39.12 0,-25.31 -27.71,-40.55 -70.63,-40.55 -46.26,-3.66 -88.38,25.76 -99.24,69.31l-104.91 -20.99c14.91,-78.23 98.35,-134.03 201.17,-134.03 116.23,0 188.36,57.52 188.36,150.71l0 244.18 -99.84 0 0 -42.57 -1.49 0c-33.88,36.8 -83.53,56.35 -134.41,52.92 -87.92,0 -149.02,-46.3 -149.02,-115.04 0,-68.74 50.07,-108.14 175.24,-124.82zm103.72 40.55l0 0 -1.49 0c-9.84,13.8 -29.81,21.86 -84.94,31.06 -65.27,11.79 -89.41,24.16 -89.41,46.59 0,22.44 19.37,33.37 61.39,33.37 64.08,0 113.55,-28.76 113.55,-65.29l0.9 -45.73z"/>
  <polygon class="fil4" points="2974.61,477.15 2790.72,115.05 2913.21,115.05 3033.91,365.84 3035.7,365.84 3154.91,115.05 3278,115.05 3002.62,661.51 2880.13,661.51 "/>
 </g>
</svg>
