<?xml version="1.0" encoding="UTF-8"?>
<!DOCTYPE svg PUBLIC "-//W3C//DTD SVG 1.1//EN" "http://www.w3.org/Graphics/SVG/1.1/DTD/svg11.dtd">
<!-- Creator: CorelDRAW 2019 (64-Bit) -->
<svg xmlns="http://www.w3.org/2000/svg" xml:space="preserve" width="4753px" height="1080px" version="1.1" style="shape-rendering:geometricPrecision; text-rendering:geometricPrecision; image-rendering:optimizeQuality; fill-rule:evenodd; clip-rule:evenodd"
viewBox="0 0 4753 1079.92"
 xmlns:xlink="http://www.w3.org/1999/xlink"
 xmlns:xodm="http://www.corel.com/coreldraw/odm/2003">
 <defs>
  <style type="text/css">
   <![CDATA[
    .fil0 {fill:#00A4E4;fill-rule:nonzero}
   ]]>
  </style>
 </defs>
 <g id="Layer_x0020_1">
  <metadata id="CorelCorpID_0Corel-Layer"/>
  <path class="fil0" d="M802.71 959.7c129.76,-74.97 210.88,-203.2 210.88,-342.59 0,-310.76 -313.77,-421.92 -313.77,-421.92 -57.73,-32.83 -128.91,-50.42 -207.68,-50.42 -5.83,0 -16.3,0.17 -22.18,0.17 80.08,-58.09 184.15,-93.89 289.39,-93.89 245.26,0 430.86,224.94 430.86,435.52 0,244.91 -179.42,435.05 -387.5,473.13zm-157.76 -0.91l0 0c-159.49,-30.18 -290.48,-146.85 -346.76,-285.1 55.91,53.01 135.45,89.26 237.04,89.26 162.1,0 316.26,-120.2 316.26,-298.09 0,-87.57 -32.07,-144.78 -32.07,-144.78 67.79,66.39 110.62,159.52 110.62,272.98 0,159.5 -123.58,308.31 -285.09,365.73zm-142.6 25.29l0 0c-190.38,0 -391.47,-177.97 -391.47,-399.42 0,-108.23 35.1,-216.2 124.12,-288.81 -15.85,31.87 -26.7,69.98 -31.07,115.82 -2.12,16.55 -3.34,33.67 -3.34,51.62 0,239.19 135.77,437.51 348.32,517.8 -15.35,1.95 -30.93,2.99 -46.56,2.99zm18.39 -774.44l0 0c138.38,0 245.43,131.54 245.43,248.79 0,158.68 -100.27,264.89 -240.38,264.89 -125.61,0 -237.85,-112.37 -237.85,-272.22 0,-131.96 101.62,-241.46 232.8,-241.46zm197.28 -209.64l0 0c-129.27,0 -312.92,53.78 -421.23,184.74 -171.5,72.5 -296.79,234.01 -296.79,410.83 0,274.15 241.69,437.92 532.97,437.92 47.92,0 93.73,-10.26 136.32,-20.9 31.34,4.85 63.91,7.43 97.65,7.43 274.93,0 517.03,-215.24 517.03,-496.65 0,-290.02 -238.84,-523.37 -565.95,-523.37z"/>
  <path class="fil0" d="M1737.94 803.84c0,88.22 -57.99,138.01 -181.65,141.74l0 134.34c140.32,0 318.2,-73.54 318.2,-276.08l0 -658.25 -136.55 0 0 658.25z"/>
  <path class="fil0" d="M2129.91 416.49c9.07,-81.81 45.12,-154.04 135.23,-154.04 90.25,0 126.24,72.23 135.42,154.04l-270.65 0zm413.55 12.53l0 0c0,-104.38 -59.35,-295.98 -278.32,-295.98 -207.4,0 -278.14,168.03 -278.14,341.96 0,174.14 72.17,342.08 310.39,342.08 64.5,0 146.74,-14.87 240.88,-79.64l-69.52 -104.37c-59.21,36.13 -116.08,54.7 -171.36,54.7 -105.65,0 -154.61,-69.63 -166.17,-141.75l287.21 0c85.02,0 125.03,-32.26 125.03,-117z"/>
  <path class="fil0" d="M2914.6 133.04c-170.15,0 -257.36,135.66 -257.36,135.66l0 540.99 136.36 0 0 -497.48c0,0 42.49,-49.76 121,-49.76 86.36,0 133.91,68.36 133.91,129.31l0 417.93 136.73 0 0 -417.93c0,-125.64 -91.6,-258.72 -270.64,-258.72z"/>
  <polygon class="fil0" points="3336.6,809.69 3473.05,809.69 3473.05,140.52 3336.6,140.52 "/>
  <path class="fil0" d="M4505.71 404.19l1.22 0c-46.57,-12.47 -106.77,-34.56 -106.77,-80.68 0,-33.6 35.99,-61.06 104.25,-61.06 68.28,0 145.52,29.87 175.15,43.47l43.91 -118.21c-45.26,-22.38 -136.78,-54.67 -219.06,-54.67 -118.44,0 -242.19,58.38 -242.19,190.47 0,121.69 110.83,182.77 220.28,208.84 59.39,12.34 133.91,36.11 133.91,83.39 0,49.78 -60.3,72.17 -119.73,72.17 -57.91,0 -137.76,-36.2 -198.28,-67.35l-52.85 123.21c57.9,28.72 143.04,70.74 251.13,73.3 124.79,0 256.32,-57.12 256.32,-201.33 0,-139.56 -144.27,-186.76 -247.29,-211.55z"/>
  <path class="fil0" d="M4019.84 558.37c0,60.76 -47.47,128.83 -133.29,129.36 -85.41,-0.53 -133.07,-68.6 -133.07,-129.36l0 -417.85 -136.44 0 0 417.85c0,125.36 91.01,257.84 268.93,258.71l1.58 0c177.91,-0.87 268.74,-133.35 268.74,-258.71l0 -417.85 -136.45 0 0 417.85z"/>
 </g>
</svg>
