<?xml version="1.0" encoding="UTF-8"?>
<!DOCTYPE svg PUBLIC "-//W3C//DTD SVG 1.1//EN" "http://www.w3.org/Graphics/SVG/1.1/DTD/svg11.dtd">
<!-- Creator: CorelDRAW 2019 (64-Bit) -->
<svg xmlns="http://www.w3.org/2000/svg" xml:space="preserve" width="1172px" height="1080px" version="1.1" style="shape-rendering:geometricPrecision; text-rendering:geometricPrecision; image-rendering:optimizeQuality; fill-rule:evenodd; clip-rule:evenodd"
viewBox="0 0 1172 1080.24"
 xmlns:xlink="http://www.w3.org/1999/xlink"
 xmlns:xodm="http://www.corel.com/coreldraw/odm/2003">
 <defs>
  <style type="text/css">
   <![CDATA[
    .fil0 {fill:#E9232A;fill-rule:nonzero}
   ]]>
  </style>
 </defs>
 <g id="Layer_x0020_1">
  <metadata id="CorelCorpID_0Corel-Layer"/>
  <path class="fil0" d="M39.05 1059.14c-22.29,-11.61 -39.84,-21.78 -39.02,-22.6 2.85,-2.85 109.48,-25.6 183.94,-39.25 161.13,-29.54 352.7,-53.18 543.52,-67.07 78.58,-5.72 362.88,-5.92 412.18,-0.28l32.33 3.7 -36.44 0.56c-64.69,1.01 -213.04,11.39 -329.27,23.04 -220.01,22.07 -464.61,62.74 -641.55,106.69 -36.14,8.97 -70.09,16.31 -75.44,16.31 -5.36,0 -27.97,-9.49 -50.25,-21.1zm307.59 -221.45l0 0c-3.3,-9.13 10.53,-13.22 16.56,-15.82 27.09,-11.61 46.15,-30.54 52.53,-52.16 3.05,-10.34 12.35,-68.82 20.66,-129.94 8.31,-61.12 15.77,-108.39 16.59,-111.17 0.6,-2.05 2.24,-9.34 11.01,-10.13 22.38,-0.22 39,0.07 61.93,0.07 12.67,-1.22 10.18,12.65 9.19,21.53 -1,11.22 -4.02,32.87 -7.54,59.29 -4.29,32.23 -10.7,80.4 -14.24,107.04 -7.97,59.88 -12.39,78.31 -26.16,109.16 -16.4,36.7 -41.46,58.02 -86.89,73.2 -9.18,2.87 -35.48,11.82 -38.35,3.87 -5.94,-19.04 -10.15,-35.59 -15.29,-54.94zm521.71 -20.08l0 0c-30.28,-12.21 -28.85,-59.42 2.91,-78.78 20.09,-12.26 48.33,-10.17 62.84,4.34 35.76,35.75 -16.82,94.19 -65.75,74.44zm-228.83 -28.19l0 0c-89.01,-15.2 -88.42,-121.33 -68.48,-181.97 24.97,-70.2 85.82,-90.6 135.83,-92.38 42.21,-1.44 100.71,6.41 115.4,15.48 4.06,2.51 2.15,26.84 -9.18,117.06 -7.86,62.63 -16.47,116.5 -19.12,119.69 -14.09,16.98 -108.51,30.5 -154.45,22.12zm77.64 -83.99l0 0c9.56,-35.55 13.59,-67.64 20.43,-105.14 -0.85,-12.93 -22.67,-13.02 -28.22,-13.05 -28.9,0 -45.97,16.22 -55.01,52.29 -12.41,49.46 0.54,77.02 36.21,77.02 11.27,-1.04 23.04,-0.42 26.59,-11.12zm-650.52 55.35l0 0c24.33,-59.44 122.06,-272.26 145.51,-316.34 4.43,-10.98 16.11,-13.15 24.1,-13.92 22.99,-1.05 42.86,-0.77 63.04,-0.62 20.79,0.18 21.1,7.47 23.78,22.93 3.27,15.41 43.85,257.67 53.03,315.82 1.17,9.66 3.54,12.66 -9.03,12.68 -17.42,0.05 -59.35,2.32 -73.57,1.24 -4.54,-0.59 -7.51,-3.57 -8.21,-6.92 -1.3,-6.24 -2.77,-16.95 -3.77,-28.11l-2.59 -28.97 -52.21 0 -52.22 0 -11.41 27.86c-4.07,9.91 -8.5,19.68 -11.81,26.16 -2.32,5.95 -5.77,8.69 -10.93,9.82 -12.79,-0.11 -58.09,1.57 -75.12,0.07 -8.42,-3.87 -0.8,-16.29 1.41,-21.7zm203.09 -122.87l0 0c-1.48,-15.65 -11.47,-96.38 -13.82,-108.3 -0.62,-1.28 -0.91,-0.87 -1.54,-0.11 -6.17,9.26 -39.55,91.19 -45.23,110.22 -0.69,2.62 1.02,3.58 3.5,3.37 8.47,-0.58 43.08,-1.23 53.6,-1.63 3,-0.23 3.3,-1.28 3.49,-3.55zm602.63 39.24l0 0c1.35,-10.55 4.31,-39.19 6.58,-63.64 2.26,-24.45 5.89,-62.64 8.06,-84.86 1.64,-16.87 3.09,-33.24 3.71,-41.86 1.27,-7.72 10.61,-8.63 16.74,-8.69 20.46,0.22 39.72,-1 58.11,0.7 8.7,0.89 12.33,2.81 12.36,7.98 -8.29,42.55 -38.1,189.36 -40.39,198.45 -1.98,7.84 -2.78,10.15 -14.75,10.83 -14.66,-0.24 -26.88,0.53 -41.76,0.46 -8.53,-0.11 -10.81,-2.62 -8.66,-19.37zm-412.72 -218.1l0 0c0,-25.94 16.69,-45.71 37.58,-54.03 18.06,-6.32 38.3,-6.3 49.08,6.01 19.12,22.23 6.57,55.08 -15.77,72.19 -28.62,19.69 -70.42,8.05 -70.89,-24.17zm512.75 -54.67l0 0c-6.25,-13.89 -26.3,-57.71 -44.56,-97.38 -18.26,-39.67 -32.23,-74.65 -31.05,-77.72 1.18,-3.07 21.53,-28.35 45.22,-56.17l38.56 -45.29c2.53,-3.05 5.42,-6.78 8.92,-6.83 23.24,0.12 47.32,1.51 69.5,1.29 16.52,-0.14 24.83,-1.21 12.58,11.22 -7.85,9.72 -23.31,27.5 -41,47.01 -25.56,28.2 -46.47,52.02 -46.47,52.95 0,0.92 19.17,43.03 42.59,93.58 18.41,39.71 33.61,75.23 38.74,90.06 2.18,5.04 0.26,9.35 -4.42,10.53 -6.2,1.44 -17.35,2.01 -36.54,2.01l-28.74 0c-7.02,0.73 -12.19,-0.5 -14.89,-6.51l-8.44 -18.75zm-860.19 -29.56l0 0c-25.86,-12.89 -38.09,-29.21 -40.32,-53.79 -1.33,-14.74 22.77,-212.83 33.45,-275.82 2.61,-14.79 3.74,-15.63 17.92,-15.63l27.9 0c14.66,0 28,-0.25 36.39,0.23 11.47,0.16 9.37,7.39 8.49,16.04 -1.97,19.32 -8.11,61.16 -15.82,115.04 -13.68,95.59 -17.16,129.32 -13.89,134.52 3.83,6.07 13.56,7.08 78,8.04l57.64 0.86c13.73,-0.76 16.57,2.61 15.22,14.94 -3.36,20.4 -5.21,36.66 -8.55,54.94 -2.3,11.41 -9.66,8.43 -21.13,9.13l-67.39 0.94c-86.41,1.08 -86.87,1.04 -107.91,-9.44zm664.69 7.34l0 0c-0.87,-1.67 1.54,-24.85 5.36,-51.53 3.82,-26.67 11.79,-83.95 17.72,-127.29 16.84,-123.04 22.37,-160.11 24.71,-174.29 2.48,-16.55 2.49,-15.63 18.71,-15.63l25.71 0c10.04,0 17.87,-0.14 23.92,0.06 23.09,0.75 20.16,-1.24 14.33,34.52 -2.21,13.52 -9.54,73.01 -16.3,123.01 -17.03,125.94 -28.2,203.15 -30.24,209.13 -1.92,5.6 -81.05,7.5 -83.92,2.02zm-439.36 -9.58l0 0c10.73,-90 20.97,-158.05 32.88,-241.79 0.9,-10.03 10.75,-11.19 22.26,-11.2 13.1,-0.02 26.41,-0.19 38.88,0.23 24.16,0.08 30.51,3.31 28,19.47 -10.7,78.62 -23.93,148.79 -37.81,228.72 -2.6,13.54 -5.77,13.14 -18.7,13.14 -15.06,0.05 -41.78,0.55 -55.43,0.18 -7.99,-1.42 -9.8,-2.32 -10.08,-8.75zm170.49 -201.47l0 0c6.63,-34.8 11.22,-40.23 20.85,-46.54 11.87,-7.78 99.62,-15.89 129.92,-12.01 4.23,0.61 8.25,1.37 12.09,2.28 88.75,21.08 74.96,121.58 69.19,167.82 -6.09,44.17 -12.05,84.39 -13.27,89.4 -2.12,8.7 -4.01,9.09 -44.2,9.09 -13.51,0 -20.56,-0.47 -28.24,-1.19 -12.42,-0.81 -13.57,-3.6 -12.33,-12.63 4.52,-36.9 10.62,-68.72 15.17,-103.19 6.12,-47.04 4.49,-93.48 -53.88,-83.5 -10,2.54 -12.74,3.34 -14.11,13.32 -7.29,46.46 -13.69,94.46 -20.35,139.91 -1.46,10.85 -3.5,22.18 -5.6,32.23 -0.54,2.56 -0.84,4.85 -1.3,6.54 -0.6,2.01 -1.98,4.09 -3.3,2.03 -9.38,-17.08 -53.51,-14.23 -71.92,-1.7 -9.24,6.42 -11.14,9.88 -7.37,-9.7 0.66,-4.15 1.31,-8.3 1.94,-12.44 9.14,-59.96 15.3,-118.94 26.71,-179.72zm-125.99 -102.99l0 0c-9.86,-33.63 19.49,-66.86 52.36,-68.01 44.54,-2.98 56.84,58.28 11.27,86.06 -26.39,12.08 -54.13,9.52 -63.63,-18.05z"/>
 </g>
</svg>
